<?xml version="1.0" encoding="UTF-8"?>
<svg width="27px" height="23px" viewBox="0 0 27 23" version="1.1" xmlns="http://www.w3.org/2000/svg" xmlns:xlink="http://www.w3.org/1999/xlink">
    <!-- Generator: Sketch 46.2 (44496) - http://www.bohemiancoding.com/sketch -->
    <title>camera</title>
    <desc>Created with Sketch.</desc>
    <defs></defs>
    <g id="Components" stroke="none" stroke-width="1" fill="none" fill-rule="evenodd">
        <g id="iPhone-7" transform="translate(-26.000000, -15.000000)" fill-rule="nonzero" fill="#262626">
            <g id="camera" transform="translate(26.000000, 15.000000)">
                <path d="M13.5,9.27177399 C14.6078438,9.27177399 15.5570625,9.68617347 16.3476563,10.4635869 C17.13825,11.2410003 17.5609688,12.1733992 17.5609688,13.2607834 C17.5609688,14.3489964 17.1390938,15.2813953 16.3476563,16.0579799 C15.5562188,16.8345645 14.607,17.2497928 13.5,17.2497928 C12.3921563,17.2497928 11.4429375,16.8353933 10.6523438,16.0579799 C9.86175,15.2805665 9.43903125,14.3481676 9.43903125,13.2607834 C9.43903125,12.1725704 9.86090625,11.2401715 10.6523438,10.4635869 C11.4437813,9.68700227 12.393,9.27177399 13.5,9.27177399 Z M23.4140625,3.52239559 C24.4164375,3.52239559 25.2601875,3.88540953 25.9453125,4.55839429 C26.6312813,5.28359338 27,6.11239235 27,7.09700551 L27,19.4776044 C27,20.4100032 26.6304375,21.2388022 25.9453125,21.9640013 C25.2593438,22.6378149 24.4155938,23 23.4140625,23 L3.5859375,23 C2.5835625,23 1.7398125,22.6369861 1.0546875,21.9640013 C0.36871875,21.2388022 0,20.4100032 0,19.4776044 L0,7.09700551 C0,6.11239235 0.3695625,5.28359338 1.0546875,4.55839429 C1.74065625,3.88458074 2.58440625,3.52239559 3.5859375,3.52239559 L6.75,3.52239559 L7.48828125,1.65759792 C7.64690625,1.19098411 7.9633125,0.828798962 8.4375,0.517999351 C8.91253125,0.154985406 9.38671875,0 9.9140625,0 L17.0859375,0 C17.6132813,0 18.0883125,0.155814205 18.5625,0.517999351 C19.0375313,0.828798962 19.3539375,1.19181291 19.5117188,1.65759792 L20.25,3.52239559 L23.4140625,3.52239559 Z M13.5,19.4767756 C15.2406563,19.4767756 16.7172188,18.8551764 17.9296875,17.6119779 C19.1953125,16.420165 19.7758125,14.9697669 19.7758125,13.2607834 C19.7758125,11.5517999 19.1953125,10.100573 17.9296875,8.90958884 C16.716375,7.6663904 15.2398125,7.09617671 13.5,7.09617671 C11.7601875,7.09617671 10.2827813,7.6663904 9.0703125,8.90958884 C7.8046875,10.1014018 7.2241875,11.5517999 7.2241875,13.2607834 C7.2241875,14.9697669 7.8046875,16.4209938 9.0703125,17.6119779 C10.283625,18.8551764 11.7601875,19.4767756 13.5,19.4767756 Z" id="Shape"></path>
            </g>
        </g>
    </g>
</svg>