<?xml version="1.0" encoding="UTF-8"?>
<svg width="23px" height="23px" viewBox="0 0 23 23" version="1.1" xmlns="http://www.w3.org/2000/svg" xmlns:xlink="http://www.w3.org/1999/xlink">
    <!-- Generator: Sketch 46.2 (44496) - http://www.bohemiancoding.com/sketch -->
    <title>Cogwheel-orange-light</title>
    <desc>Created with Sketch.</desc>
    <defs></defs>
    <g id="Components" stroke="none" stroke-width="1" fill="none" fill-rule="evenodd">
        <g id="iPhone-7" transform="translate(-209.000000, -106.000000)" fill-rule="nonzero" fill="#FFB9AA">
            <g id="Group-2" transform="translate(124.000000, 97.000000)">
                <g id="Cogwheel-orange-light" transform="translate(85.000000, 9.000000)">
                    <path d="M8.90229553,22.9561559 C8.69114426,22.8845153 8.60819198,22.8317274 8.54786305,22.741234 C8.49130467,22.6545112 8.41966406,22.2359792 8.18588945,20.6448036 C8.13687219,20.2941417 8.0727727,19.8982331 8.04637879,19.7662635 C7.99736153,19.4985539 8.00867321,19.5098656 7.412925,19.2082209 C6.96799912,18.985758 6.68520725,18.8160829 6.31946309,18.5596849 C6.01027731,18.3409925 6.0027362,18.3409925 5.66715651,18.4918148 C5.56158088,18.5408321 5.42961134,18.5936199 5.37682352,18.6087021 C5.3240357,18.6237844 5.21468951,18.6690311 5.13173723,18.7067367 C5.04878495,18.7444422 4.5473007,18.9442818 4.01942253,19.1554331 C2.74120327,19.6644585 2.61300429,19.668229 2.33775354,19.1893681 C2.27365404,19.0762514 2.05496166,18.6991955 1.85135152,18.3447631 C1.64774137,17.9941011 1.38003173,17.5190108 1.24806219,17.2890067 C1.11986321,17.0627732 0.829530218,16.5499773 0.599526162,16.1540687 C0.0980419089,15.2792992 0.0829596757,15.2415936 0.109353584,15.0191307 C0.124435817,14.8683083 0.154600283,14.8155205 0.312963732,14.6684687 C0.410998247,14.5742048 0.561820579,14.4460058 0.644772862,14.3781357 C0.727725144,14.3140363 0.965270317,14.1217378 1.17265102,13.9520627 C1.38003173,13.7861581 1.7985637,13.4505784 2.10397892,13.2054921 C2.40939414,12.9641764 2.66579211,12.745484 2.67333322,12.7228607 C2.6846449,12.7002373 2.66956267,12.5908911 2.6393982,12.4815449 C2.57906927,12.2439997 2.57152815,11.2900485 2.62808652,10.9921744 C2.64693932,10.8903693 2.67333322,10.7093825 2.6846449,10.5962658 L2.70349769,10.3888851 L2.46595252,10.2154394 C2.33398298,10.1174049 1.96446826,9.83838356 1.64397081,9.59329727 C1.32347335,9.34821098 0.874776917,9.00886073 0.64854342,8.83541505 C0.226240891,8.5149176 0.0490246511,8.30753689 0.00377795158,8.08507395 C-0.0150748399,7.9719572 0.0264013013,7.87769325 0.365751548,7.28948615 C0.576902812,6.91997144 0.814447985,6.50898058 0.889859151,6.37324049 C1.07838707,6.04143136 1.16133935,5.89060902 1.59118299,5.14780904 C1.79102258,4.79714712 2.03233831,4.37107403 2.12660227,4.20516947 C2.39808247,3.72253801 2.57152815,3.58302735 2.89956672,3.58302735 C3.03153626,3.58302735 3.60089056,3.7866375 4.11368649,4.01664155 C4.17778598,4.04303546 4.43795451,4.15615221 4.69812303,4.26172784 C4.95829155,4.36730347 5.22223063,4.48042022 5.28255956,4.50681413 C5.48239915,4.59730753 5.87830777,4.75190042 5.90470168,4.75190042 C5.91601336,4.75190042 6.19880523,4.57091362 6.53061436,4.34845068 C7.07734531,3.98270653 7.66178185,3.65843851 7.7748986,3.65843851 C7.8917859,3.65843851 7.88424479,3.69237354 8.16703666,1.75430658 C8.3894996,0.231001025 8.39327016,0.215918792 8.66852091,0.114113718 C8.73639096,0.0914903682 8.81934324,0.0537847852 8.85327827,0.0349319938 C8.94754222,-0.0140852641 13.5476233,-0.0103147058 13.5777878,0.0387025521 C13.5890995,0.0613259018 13.6343462,0.076408135 13.6720518,0.076408135 C13.7097574,0.076408135 13.7927096,0.121654835 13.8568091,0.174442651 C13.9623848,0.261165491 13.9736964,0.295100516 13.9736964,0.483628431 C13.977467,0.604286296 14.0000903,0.834290352 14.0302548,1.00019492 C14.0641898,1.16609948 14.1358304,1.63364871 14.1999299,2.03709845 C14.3696051,3.16826594 14.4261634,3.52269842 14.4412457,3.56794512 C14.4525573,3.59056846 14.7240375,3.74893191 15.0483055,3.91860704 C15.3725736,4.08828216 15.6855299,4.25795728 15.7383177,4.29566287 C16.0852091,4.52566692 16.2284903,4.62370144 16.3189837,4.69157149 L16.4207888,4.76321209 L17.2993288,4.41632073 C17.7819603,4.22402226 18.245739,4.03549434 18.3286913,4.00155932 C18.4116435,3.96385374 18.5473836,3.91106592 18.6303359,3.88467201 C18.7132882,3.8582781 18.800011,3.82434308 18.8188638,3.80549029 C18.9055867,3.7413908 19.4447765,3.58302735 19.5918283,3.58302735 C19.893473,3.58302735 19.9575724,3.64712684 20.3082344,4.2654984 C20.6966019,4.95174001 20.9718526,5.43437147 21.4544841,6.27897653 C21.6580942,6.63340901 21.8654749,6.99161205 21.9144922,7.07833489 C21.9635095,7.16882829 22.0841673,7.37997955 22.1784313,7.54965467 C22.4876171,8.09261507 22.4461409,8.21704349 21.7598993,8.767545 C21.3149734,9.12574804 20.6023379,9.70641402 20.1046242,10.1098638 C19.8105207,10.3474089 19.799209,10.3624912 19.8067501,10.5057724 C19.8595379,11.4408708 19.8595379,11.7161216 19.8218323,12.1044891 C19.7954384,12.3420343 19.7690445,12.5758089 19.7577329,12.6210556 C19.7388801,12.7228607 19.7087156,12.6964667 20.3911866,13.1715571 C22.1105612,14.3668241 22.4687643,14.6194515 22.5253226,14.683551 C22.5667988,14.7287977 22.5894221,14.8155205 22.5894221,14.94749 C22.5856516,15.1171652 22.5517165,15.2001175 22.3217125,15.6111083 C22.0389206,16.108822 21.3790729,17.2739245 21.1377572,17.6849154 C21.062346,17.8206555 20.8964415,18.1072179 20.772013,18.3259103 C20.0857714,19.5249478 20.0782303,19.5324889 19.7803562,19.5324889 C19.637075,19.5324889 19.3165775,19.4193722 18.1363928,18.9442818 C16.8166974,18.4164037 16.6621045,18.3598453 16.5904639,18.4088626 C16.5452172,18.4352565 16.3642304,18.5559143 16.179473,18.6803428 C15.9984862,18.8010006 15.5874954,19.0385458 15.2594568,19.2082209 L14.6712497,19.5174067 L14.6071502,19.9321681 C14.5694446,20.1584016 14.4902629,20.6749681 14.429934,21.0784178 C14.3658345,21.4818676 14.2904233,21.9833518 14.2564883,22.1907325 C14.2263238,22.3981132 14.1848477,22.6054939 14.1659949,22.6469701 C14.1207482,22.7525457 13.9209086,22.8958269 13.7436924,22.9561559 C13.5702467,23.0164848 9.07574121,23.0127142 8.90229553,22.9561559 Z M11.8621838,15.5771733 C12.9744985,15.3773337 13.9661553,14.7287977 14.6033797,13.7823875 C14.8937127,13.3525439 15.0935522,12.8774535 15.2028984,12.3759693 C15.2783096,12.0215368 15.2896213,11.1769318 15.2217512,10.8224993 C14.9201066,9.2652587 13.6833634,7.97949832 12.1072701,7.59113081 C11.7339848,7.50063742 10.7046224,7.50063742 10.3351077,7.59113081 C8.63081533,8.0172039 7.37144886,9.43870438 7.17915039,11.1543084 C6.99062247,12.8284363 7.99359098,14.5402698 9.58099602,15.2604464 C10.2785493,15.5809438 11.1608599,15.7016017 11.8621838,15.5771733 Z" id="Shape"></path>
                </g>
            </g>
        </g>
    </g>
</svg>