<!DOCTYPE svg PUBLIC "-//W3C//DTD SVG 20010904//EN" "http://www.w3.org/TR/2001/REC-SVG-20010904/DTD/svg10.dtd">
<svg version="1.0" xmlns="http://www.w3.org/2000/svg" width="1200px" height="630px" viewBox="0 0 12000 6300" preserveAspectRatio="xMidYMid meet">
<g id="layer1" fill="#000000" stroke="none">
 <path d="M5365 6188 c-56 -19 -78 -33 -94 -57 -15 -23 -34 -134 -96 -556 -13 -93 -30 -198 -37 -233 -13 -71 -10 -68 -168 -148 -118 -59 -193 -104 -290 -172 -82 -58 -84 -58 -173 -18 -28 13 -63 27 -77 31 -14 4 -43 16 -65 26 -22 10 -155 63 -295 119 -339 135 -373 136 -446 9 -17 -30 -75 -130 -129 -224 -54 -93 -125 -219 -160 -280 -34 -60 -111 -196 -172 -301 -133 -232 -137 -242 -130 -301 4 -40 12 -54 54 -93 26 -25 66 -59 88 -77 22 -17 85 -68 140 -113 55 -44 166 -133 247 -198 81 -64 149 -122 151 -128 3 -6 -1 -35 -9 -64 -16 -63 -18 -316 -3 -395 5 -27 12 -75 15 -105 l5 -55 -63 -46 c-35 -26 -133 -100 -218 -165 -85 -65 -204 -155 -264 -201 -112 -85 -159 -140 -171 -199 -5 -30 6 -55 96 -211 56 -98 119 -207 139 -243 50 -88 72 -128 186 -325 53 -93 117 -206 142 -250 72 -128 118 -165 205 -165 35 0 186 54 322 115 17 7 86 37 155 65 69 28 139 58 155 65 53 24 158 65 165 65 3 0 78 -48 166 -107 145 -97 300 -183 330 -183 31 0 29 9 104 -505 59 -404 60 -408 133 -435 18 -6 40 -16 49 -21 25 -13 1245 -12 1253 1 3 6 15 10 25 10 10 0 32 12 49 26 28 23 31 32 31 82 1 32 7 93 15 137 9 44 28 168 45 275 45 300 60 394 64 406 3 6 75 48 161 93 86 45 169 90 183 100 92 61 130 87 154 105 l27 19 233 -92 c128 -51 251 -101 273 -110 22 -10 58 -24 80 -31 22 -7 45 -16 50 -21 23 -17 166 -59 205 -59 80 0 97 17 190 181 103 182 176 310 304 534 54 94 109 189 122 212 13 24 45 80 70 125 82 144 71 177 -111 323 -118 95 -307 249 -439 356 -78 63 -81 67 -79 105 14 248 14 321 4 424 -7 63 -14 125 -17 137 -5 27 -13 20 168 146 456 317 551 384 566 401 11 12 17 35 17 70 -1 45 -10 67 -71 176 -75 132 -250 441 -314 550 -20 36 -64 112 -97 170 -182 318 -184 320 -263 320 -38 0 -123 -30 -436 -156 -350 -140 -391 -155 -410 -142 -12 7 -60 39 -109 72 -48 32 -157 95 -244 140 l-156 82 -17 110 c-10 60 -31 197 -47 304 -17 107 -37 240 -46 295 -8 55 -19 110 -24 121 -12 28 -65 66 -112 82 -46 16 -1238 15 -1284 0z m785 -1957 c295 -53 558 -225 727 -476 77 -114 130 -240 159 -373 20 -94 23 -318 5 -412 -80 -413 -408 -754 -826 -857 -99 -24 -372 -24 -470 0 -452 113 -786 490 -837 945 -50 444 216 898 637 1089 185 85 419 117 605 84z"/>
 </g>
<g id="layer2" fill="#fefefe" stroke="none">
 <path d="M0 3150 l0 -3150 6000 0 6000 0 0 3150 0 3150 -6000 0 -6000 0 0 -3150z m6649 3038 c47 -16 100 -54 112 -82 5 -11 16 -66 24 -121 9 -55 29 -188 46 -295 16 -107 37 -244 47 -304 l17 -110 156 -82 c87 -45 196 -108 244 -140 49 -33 97 -65 109 -72 19 -13 60 2 410 142 313 126 398 156 436 156 79 0 81 -2 263 -320 33 -58 77 -134 97 -170 64 -109 239 -418 314 -550 61 -109 70 -131 71 -176 0 -35 -6 -58 -17 -70 -15 -17 -110 -84 -566 -401 -181 -126 -173 -119 -168 -146 3 -12 10 -74 17 -137 10 -103 10 -176 -4 -424 -2 -38 1 -42 79 -105 132 -107 321 -261 439 -356 182 -146 193 -179 111 -323 -25 -45 -57 -101 -70 -125 -13 -23 -68 -118 -122 -212 -128 -224 -201 -352 -304 -534 -93 -164 -110 -181 -190 -181 -39 0 -182 42 -205 59 -5 5 -28 14 -50 21 -22 7 -58 21 -80 31 -22 9 -145 59 -273 110 l-233 92 -27 -19 c-24 -18 -62 -44 -154 -105 -14 -10 -97 -55 -183 -100 -86 -45 -158 -87 -161 -93 -4 -12 -19 -106 -64 -406 -17 -107 -36 -231 -45 -275 -8 -44 -14 -105 -15 -137 0 -50 -3 -59 -31 -82 -17 -14 -39 -26 -49 -26 -10 0 -22 -4 -25 -10 -8 -13 -1228 -14 -1253 -1 -9 5 -31 15 -49 21 -73 27 -74 31 -133 435 -75 514 -73 505 -104 505 -30 0 -185 86 -330 183 -88 59 -163 107 -166 107 -7 0 -112 -41 -165 -65 -16 -7 -86 -37 -155 -65 -69 -28 -138 -58 -155 -65 -136 -61 -287 -115 -322 -115 -87 0 -133 37 -205 165 -25 44 -89 157 -142 250 -114 197 -136 237 -186 325 -20 36 -83 145 -139 243 -90 156 -101 181 -96 211 12 59 59 114 171 199 60 46 179 136 264 201 85 65 183 139 218 165 l63 46 -5 55 c-3 30 -10 78 -15 105 -15 79 -13 332 3 395 8 29 12 58 9 64 -2 6 -70 64 -151 128 -81 65 -192 154 -247 198 -55 45 -118 96 -140 113 -22 18 -62 52 -88 77 -42 39 -50 53 -54 93 -7 59 -3 69 130 301 61 105 138 241 172 301 35 61 106 187 160 280 54 94 112 194 129 224 42 74 70 93 137 93 45 0 95 -16 309 -102 140 -56 273 -109 295 -119 22 -10 51 -22 65 -26 14 -4 49 -18 77 -31 89 -40 91 -40 173 18 97 68 172 113 290 172 158 80 155 77 168 148 7 35 24 140 37 233 82 559 84 567 136 591 65 30 100 32 693 33 450 1 619 -2 645 -11z"/>
 <path d="M5884 4238 c-207 -16 -435 -114 -599 -258 -417 -367 -503 -934 -209 -1390 153 -238 391 -407 669 -477 98 -24 371 -24 470 0 418 103 746 444 826 857 18 94 15 318 -5 412 -93 431 -448 770 -886 849 -69 12 -166 15 -266 7z"/>
 </g>

</svg>