<?xml version="1.0" encoding="UTF-8"?>
<svg width="22px" height="23px" viewBox="0 0 22 23" version="1.1" xmlns="http://www.w3.org/2000/svg" xmlns:xlink="http://www.w3.org/1999/xlink">
    <!-- Generator: Sketch 46.2 (44496) - http://www.bohemiancoding.com/sketch -->
    <title>Cogwheel-white</title>
    <desc>Created with Sketch.</desc>
    <defs></defs>
    <g id="Components" stroke="none" stroke-width="1" fill="none" fill-rule="evenodd">
        <g id="iPhone-7" transform="translate(-208.000000, -90.000000)" fill="#FFFFFF">
            <g id="Cogwheel-white" transform="translate(208.000000, 90.000000)">
                <g id="Cogwheel">
                    <path d="M8.61291846,22.509073 C8.40871718,22.4388362 8.32849525,22.3870827 8.27015202,22.2983624 C8.21545525,22.2133388 8.14617267,21.8030075 7.92009268,20.2430094 C7.87268881,19.8992183 7.81069913,19.5110671 7.78517397,19.3816834 C7.7377701,19.1192192 7.74870946,19.1303092 7.17257012,18.834575 C6.74228884,18.616471 6.46880498,18.4501205 6.11509918,18.1987464 C5.81609016,17.984339 5.80879725,17.984339 5.48426307,18.1322061 C5.38216243,18.180263 5.25453662,18.2320165 5.2034863,18.2468032 C5.15243598,18.2615899 5.04668889,18.30595 4.96646696,18.3429168 C4.88624502,18.3798836 4.40126697,18.5758075 3.89076376,18.7828215 C2.6546167,19.281873 2.53063735,19.2855697 2.26444639,18.8160916 C2.20245671,18.7051913 1.99096252,18.3355234 1.79405414,17.9880357 C1.59714576,17.6442446 1.3382477,17.1784632 1.2106219,16.9529658 C1.08664255,16.7311651 0.805865783,16.2284169 0.583432241,15.8402657 C0.0984541907,14.9826364 0.0838683847,14.9456696 0.109393545,14.7275656 C0.123979351,14.5796985 0.153150963,14.527945 0.306301927,14.3837745 C0.401109666,14.2913576 0.546967726,14.1656705 0.62718966,14.0991303 C0.707411593,14.0362868 0.937138038,13.8477562 1.13769287,13.6814057 C1.3382477,13.5187519 1.74300382,13.1897475 2.03836639,12.9494634 C2.33372897,12.712876 2.58168767,12.4984687 2.58898057,12.4762886 C2.59991993,12.4541086 2.58533412,12.3469049 2.55616251,12.2397012 C2.49781928,12.0068105 2.49052638,11.071551 2.54522315,10.7795134 C2.56345541,10.6797031 2.58898057,10.5022625 2.59991993,10.3913622 L2.61815218,10.1880449 L2.38842574,10.0179977 C2.26079994,9.92188406 1.90344769,9.64832988 1.59349931,9.4080458 C1.28355093,9.16776172 0.849623202,8.83506069 0.630836111,8.6650135 C0.222433542,8.35079586 0.0510503211,8.14747856 0.00729290302,7.92937455 C-0.0109393545,7.81847421 0.0291716121,7.72605726 0.357352248,7.14937547 C0.561553532,6.78710102 0.791279977,6.3841631 0.864209008,6.25108269 C1.04653158,5.92577502 1.12675352,5.77790789 1.54244899,5.0496623 C1.73571092,4.70587124 1.96908381,4.28814661 2.0602451,4.12549277 C2.32278961,3.65231798 2.49052638,3.51554089 2.80776766,3.51554089 C2.93539346,3.51554089 3.48600764,3.7151615 3.98192505,3.94065887 C4.04391472,3.96653562 4.29551988,4.07743596 4.54712503,4.18094295 C4.79873019,4.28444993 5.05398179,4.39535028 5.11232502,4.42122702 C5.30558695,4.5099473 5.68846435,4.6615111 5.71398951,4.6615111 C5.72492887,4.6615111 5.99841273,4.48407055 6.31930046,4.26596654 C6.84803593,3.90738877 7.41323592,3.58947445 7.52262946,3.58947445 C7.63566946,3.58947445 7.62837656,3.62274455 7.90186042,1.722652 C8.11700106,0.229194043 8.12064751,0.214407331 8.38683847,0.114597022 C8.4524746,0.0924169528 8.53269653,0.0554501717 8.56551459,0.0369667811 C8.65667588,-0.0110900343 13.1053467,-0.00739335623 13.1345183,0.0406634593 C13.1454577,0.0628435279 13.1892151,0.0776302404 13.2256796,0.0776302404 C13.2621441,0.0776302404 13.3423661,0.121990378 13.4043557,0.173743871 C13.5064564,0.258767468 13.5173957,0.292037571 13.5173957,0.476871477 C13.5210422,0.595165176 13.5429209,0.820662541 13.5720925,0.983316378 C13.6049106,1.14597022 13.6741932,1.6043583 13.7361828,1.99990286 C13.9002732,3.10890629 13.9549699,3.45639404 13.9695557,3.50075417 C13.9804951,3.52293424 14.2430396,3.67819472 14.5566344,3.84454524 C14.8702293,4.01089575 15.1728847,4.17724627 15.223935,4.21421305 C15.5594086,4.43971041 15.6979737,4.53582405 15.7854886,4.60236425 L15.8839428,4.67260114 L16.733566,4.33250675 C17.2003118,4.14397617 17.6488253,3.95914226 17.7290472,3.92587216 C17.8092692,3.88890538 17.9405414,3.83715188 18.0207634,3.81127514 C18.1009853,3.78539839 18.1848537,3.75212829 18.2030859,3.73364489 C18.2869543,3.67080137 18.8083969,3.51554089 18.9506085,3.51554089 C19.2423246,3.51554089 19.3043143,3.57838441 19.6434343,4.18463962 C20.0190188,4.85743504 20.2852097,5.33060984 20.7519555,6.15866574 C20.9488639,6.50615348 21.1494188,6.8573379 21.1968226,6.9423615 C21.2442265,7.03108177 21.3609129,7.23809575 21.4520742,7.40444626 C21.7510833,7.93676791 21.7109723,8.05875829 21.0473181,8.59847329 C20.6170368,8.94965771 19.9278575,9.51894614 19.4465259,9.9144907 C19.1621027,10.1473814 19.1511633,10.1621681 19.1584562,10.3026419 C19.2095065,11.2194181 19.2095065,11.4892756 19.173042,11.8700334 C19.1475169,12.1029241 19.1219917,12.3321182 19.1110524,12.3764783 C19.0928201,12.4762886 19.0636485,12.4504119 19.7236562,12.9161933 C21.3864381,14.0880403 21.732851,14.3357177 21.7875478,14.3985613 C21.8276587,14.4429214 21.8495374,14.527945 21.8495374,14.6573287 C21.845891,14.8236792 21.8130729,14.9050062 21.5906394,15.3079441 C21.3171555,15.7959056 20.6790265,16.9381791 20.4456536,17.341117 C20.3727246,17.4741974 20.2122807,17.755145 20.0919478,17.9695523 C19.4282936,19.145096 19.4210007,19.1524893 19.1329311,19.1524893 C18.9943659,19.1524893 18.6844175,19.041589 17.5430782,18.5758075 C16.2668202,18.0582726 16.1173157,18.0028224 16.0480331,18.0508792 C16.0042757,18.076756 15.829246,18.1950497 15.6505699,18.3170401 C15.4755402,18.4353338 15.078077,18.6682245 14.7608357,18.834575 L14.1919893,19.1377026 L14.1299996,19.5443372 C14.0935351,19.7661379 14.0169596,20.2725828 13.9586164,20.6681273 C13.8966267,21.0636719 13.8236977,21.5553301 13.7908796,21.7586474 C13.761708,21.9619647 13.721597,22.165282 13.7033648,22.2059454 C13.6596074,22.3094524 13.4663454,22.4499262 13.2949622,22.509073 C13.1272254,22.5682199 8.78065523,22.5645232 8.61291846,22.509073 Z M11.4753829,15.274674 C12.5510861,15.07875 13.5101028,14.4429214 14.1263531,13.5150552 C14.4071299,13.0936339 14.6003918,12.6278524 14.7061389,12.1361942 C14.779068,11.7887065 14.7900073,10.9606506 14.7243712,10.6131629 C14.4326551,9.0864348 13.236619,7.82586757 11.7124022,7.44510972 C11.3514035,7.35638945 10.3559223,7.35638945 9.99857004,7.44510972 C8.35037396,7.86283435 7.13245915,9.256482 6.94649012,10.9384705 C6.76416755,12.5797956 7.73412365,14.2580875 9.26927974,14.964153 C9.94387326,15.2783706 10.7971429,15.3966643 11.4753829,15.274674 Z" id="Shape" fill-rule="nonzero"></path>
                </g>
            </g>
        </g>
    </g>
</svg>