<?xml version="1.0" encoding="UTF-8"?>
<svg width="38px" height="37px" viewBox="0 0 38 37" version="1.1" xmlns="http://www.w3.org/2000/svg" xmlns:xlink="http://www.w3.org/1999/xlink">
    <!-- Generator: Sketch 45.1 (43504) - http://www.bohemiancoding.com/sketch -->
    <title>layer1</title>
    <desc>Created with Sketch.</desc>
    <defs></defs>
    <g id="Components" stroke="none" stroke-width="1" fill="none" fill-rule="evenodd">
        <g id="iPhone-7" transform="translate(-320.000000, -11.000000)" fill-rule="nonzero" fill="#D8D8D8">
            <g id="layer1" transform="translate(320.921225, 11.853290)">
                <path d="M12.3009401,35.784553 C11.2407646,35.4650481 10.1224973,34.4920103 9.55610223,33.4027889 C9.01875301,32.3571364 8.94613825,30.672474 9.36730385,29.5396838 C9.75942355,28.5230772 10.5872318,27.5500394 11.4440859,27.1143508 C12.0830958,26.7948459 12.1266647,26.7367541 13.2885008,24.2388064 C13.9420336,22.8300801 14.450337,21.653721 14.421291,21.6101521 C14.3922451,21.5811062 13.4192074,22.0022718 12.2718942,22.554144 C11.124581,23.0914932 9.99179078,23.6288424 9.7449006,23.7305031 C9.46896452,23.8321638 9.13493663,24.1952376 8.81543169,24.7035409 C7.95857754,26.1267901 6.46271351,26.9400754 4.71995931,26.9400754 C1.35063451,26.9400754 -0.987560716,23.3529064 0.4211656,20.3321324 C1.2344509,18.5748552 2.5850854,17.6453863 4.45854618,17.5292027 C6.30296104,17.4275421 7.71168736,18.0810749 8.67020217,19.4898012 C8.9316153,19.8673979 9.14945958,20.2014258 9.17850548,20.2304717 C9.25112024,20.3321324 10.819599,19.4462323 12.0685729,18.6184241 C15.2345763,16.4980731 19.3590946,13.1287483 26.3010655,6.97101682 C30.8757953,2.91911329 32.0521544,1.97512143 33.5480185,1.16183614 C34.5210562,0.609963972 34.88413,0.580918068 34.4774874,1.04565252 C34.3613037,1.19088204 33.373743,2.5850854 32.2990446,4.13904124 C26.9110295,11.9233434 25.7927622,13.4482533 23.5997965,16.0623846 C20.9130505,19.242911 19.3010028,21.2906472 17.9067995,23.3238604 C16.9482846,24.7035409 15.7719256,26.6350934 15.7719256,26.8093689 C15.7719256,26.8529377 16.0914305,27.0998279 16.4835502,27.3467181 C17.8922765,28.2180952 18.6184241,29.772051 18.5022405,31.6455118 C18.4151028,32.8363938 18.0665519,33.6351562 17.2242207,34.5501021 C16.3528436,35.494094 15.4959895,35.8426448 14.0291714,35.9007366 C13.3465926,35.9152596 12.5768762,35.8716907 12.3009401,35.784553 Z M14.8134107,34.3322578 C15.1183927,34.2451201 15.6557419,33.9110922 16.0042928,33.5915873 C18.1391667,31.6164659 16.7304404,28.0583427 13.8113271,28.0583427 C10.9938744,28.0583427 9.57062518,31.3260068 11.4731319,33.4173119 C12.3590319,34.3903497 13.4918221,34.6953316 14.8134107,34.3322578 Z M6.41914466,24.9794769 C7.17433815,24.5292654 7.69716441,23.8031179 7.92953163,22.844603 C8.07476115,22.2927309 8.0602382,22.0313177 7.87143983,21.3777849 C7.58098079,20.4047472 7.23242995,19.9400127 6.36105285,19.4171864 C5.4751528,18.9088831 4.05190353,18.8653143 3.26766413,19.3445717 C1.20540499,20.6225914 0.929468909,23.1350621 2.70126902,24.6454491 C3.76144449,25.560395 5.19921671,25.6911016 6.41914466,24.9794769 Z M19.6205078,18.4586716 C20.6661603,18.0229831 20.8549587,16.5852109 19.9690586,15.8445403 C19.1848192,15.1764845 17.9648913,15.4814665 17.5727716,16.4254584 C17.2387437,17.2242207 17.4856339,17.8922765 18.3134421,18.4005798 C18.8362684,18.7200848 18.9814979,18.7200848 19.6205078,18.4586716 Z" id="Shape"></path>
                <path d="M29.2492247,35.0584054 C28.6828296,34.7389005 28.9587657,34.3177349 31.267915,31.9940626 L33.5625414,29.6994362 L33.1558988,29.3073166 L32.7637791,28.9006739 L30.4401068,31.2243462 C28.2180952,33.4318348 28.1164345,33.5334955 27.7243148,33.388266 C27.4629017,33.3011283 27.3031492,33.1268529 27.2741033,32.9090086 C27.2305345,32.6330725 27.6517001,32.1247692 29.5106379,30.2658314 L31.8197872,27.956682 L31.4131446,27.5645623 L31.0210249,27.1579197 L28.6973526,29.481592 C26.475341,31.6890806 26.3736803,31.7907413 25.9815606,31.6455118 C25.7201475,31.5583741 25.560395,31.3840986 25.5313491,31.1662544 C25.4877803,30.8903183 25.9089459,30.382015 27.7678837,28.5230772 L30.077033,26.2139278 L29.6703903,25.8218081 L29.2782706,25.4151655 L26.9545984,27.7388378 C24.7325868,29.9463264 24.6309261,30.0479871 24.2388064,29.9027576 C23.9773933,29.8156199 23.8176408,29.6413444 23.7885949,29.4235002 C23.745026,29.1475641 24.1661916,28.6392608 26.0251295,26.780323 L28.3342788,24.4711736 L27.9276361,24.0790539 L27.5355164,23.6724113 L25.2408901,25.9670377 C23.9193015,27.2886263 22.844603,28.2471411 22.6848506,28.2471411 C22.3798686,28.2471411 22.0313177,27.8550214 22.0167948,27.5209935 C22.0167948,27.4048099 23.0479244,26.2720196 24.2968982,25.0230458 L26.5915246,22.7284194 L26.1848819,22.3362997 L25.7927622,21.94418 L23.4255211,24.2968982 C22.1184555,25.5894409 21.0147111,26.6496164 20.9566193,26.6496164 C20.7823439,26.6496164 20.2740406,26.0106065 20.2740406,25.7927622 C20.2740406,25.6765786 21.3051702,24.5437884 22.554144,23.2802916 L24.8342474,20.9856652 L24.4421277,20.5790226 L24.050008,20.1869029 L21.8425194,22.3943915 C20.6371144,23.6143195 19.6205078,24.6018802 19.6059848,24.5728343 C19.4898012,24.4566507 24.964954,17.5001568 25.1827983,17.5001568 C25.2408901,17.5001568 27.7969296,20.0126275 30.8757953,23.0914932 L36.4671317,28.6828296 L33.1994676,31.9504938 C31.3986216,33.7513398 29.8301428,35.2181579 29.7139592,35.2181579 C29.5977756,35.2181579 29.3799313,35.1455431 29.2492247,35.0584054 Z" id="Shape"></path>
                <path d="M10.1079744,15.9026321 C9.94822192,15.7428797 9.81751536,15.5395583 9.81751536,15.4378977 C9.81751536,15.35076 10.8631679,14.2179697 12.1411876,12.925427 L14.4648599,10.5872318 L14.130832,10.2677269 C13.9420336,10.0934514 13.7387123,9.94822192 13.6515746,9.94822192 C13.5789598,9.94822192 12.5042614,10.9793515 11.2407646,12.2283253 C9.00423006,14.4648599 8.94613825,14.5084288 8.58306446,14.3051074 C7.82787097,13.8984648 8.04571525,13.520868 10.4710482,11.1100581 L12.7366287,8.8735235 L12.3590319,8.5104497 L11.9959581,8.14737591 L11.2552876,8.85900054 C10.8486449,9.26564319 9.87560716,10.224158 9.10589072,11.0083974 C8.33617428,11.7926368 7.59550374,12.5042614 7.45027423,12.5768762 C7.11624634,12.7656746 6.66603484,12.620445 6.46271351,12.2428483 C6.31748399,11.9814352 6.56437417,11.6909761 8.67020217,9.57062518 L11.0374433,7.1888611 L10.6453236,6.7967414 L10.2532039,6.39009875 L7.94405459,8.69924807 C5.88179544,10.7615072 5.59133641,10.9938744 5.25730852,10.9067367 C5.0539872,10.8631679 4.82161997,10.6743695 4.71995931,10.514617 C4.57472979,10.238681 4.79257406,9.97726783 6.92744797,7.82787097 L9.29468909,5.44610689 L8.9025694,5.0539872 L8.5104497,4.64734455 L6.20130038,6.95649387 C4.34236256,8.81543169 3.83405925,9.23659729 3.55812317,9.19302843 C3.34027889,9.16398253 3.16600347,9.00423006 3.07886576,8.74281693 C2.93363625,8.35069723 3.03529691,8.24903657 5.24278557,6.02702496 L7.56645784,3.70335269 L7.15981519,3.31123299 L6.7676955,2.90459034 L4.45854618,5.21373966 C2.59960836,7.07267748 2.09130505,7.49384308 1.81536896,7.45027423 C1.59752469,7.42122832 1.42324927,7.26147586 1.33611156,7.00006272 C1.19088204,6.60794303 1.30706565,6.47723646 4.48759208,3.29671004 L7.78430212,0 L13.2158861,5.43158394 L18.6619929,10.8631679 L17.1806519,12.0830958 C16.3673666,12.7511516 15.3071911,13.6080058 14.8279337,13.9710795 L13.9565566,14.6391353 L15.0893468,13.4918221 L16.2076141,12.329986 L15.8009715,11.9378663 L15.3943288,11.5457466 L13.0851795,13.8694189 C11.8071597,15.1474386 10.6888925,16.1930912 10.5872318,16.1930912 C10.4855711,16.1930912 10.2677269,16.0623846 10.1079744,15.9026321 Z" id="Shape"></path>
                <path d="M30.1786937,8.42331199 C30.2948773,8.26355952 31.5293282,6.50628237 32.9090086,4.50211503 C35.7700301,0.363073793 35.7119383,0.450211503 35.5376628,1.04565252 C35.2472038,2.03321324 34.3613037,3.54360022 33.2139906,5.01041834 C32.6330725,5.75108888 30.686997,7.98762344 30.2367855,8.42331199 L29.9463264,8.71377103 L30.1786937,8.42331199 Z" id="Shape"></path>
            </g>
        </g>
    </g>
</svg>