<?xml version="1.0" encoding="UTF-8"?>
<svg width="21px" height="19px" viewBox="0 0 21 19" version="1.1" xmlns="http://www.w3.org/2000/svg" xmlns:xlink="http://www.w3.org/1999/xlink">
    <!-- Generator: Sketch 46.1 (44463) - http://www.bohemiancoding.com/sketch -->
    <title>heart</title>
    <desc>Created with Sketch.</desc>
    <defs></defs>
    <g id="Components" stroke="none" stroke-width="1" fill="none" fill-rule="evenodd">
        <g id="iPhone-7" transform="translate(-310.000000, -539.000000)" fill-rule="nonzero" fill="#ED3A69">
            <g id="Group-4" transform="translate(25.000000, 197.000000)">
                <g id="heart" transform="translate(285.000000, 342.000000)">
                    <path d="M5.71164916,13.6224061 C0.872138045,8.77149453 0.820835807,8.72019229 0.42751865,7.76825077 C0.114004973,7.0101177 0,6.43439258 0,5.56795478 C0.00570024866,4.98082917 0.034201492,4.68441624 0.125405471,4.31390007 C0.644128099,2.21620857 2.20029598,0.660040681 4.29798749,0.141318051 C5.02761932,-0.0410899064 6.1847698,-0.029689409 6.92010188,0.164119045 C8.00314912,0.454831727 8.7156802,0.87665013 9.66762173,1.80009041 L10.2832486,2.39291627 L10.8475732,1.85139265 C11.1553866,1.54927947 11.5715048,1.19016381 11.7710135,1.04765759 C14.6382386,-0.993031431 18.5942111,0.0558143209 20.0933765,3.25365382 C20.4752932,4.07448963 20.5721974,4.54761027 20.5664972,5.59645602 C20.5607969,6.58829929 20.4752932,7.03861894 20.1617795,7.75115002 C19.7285606,8.73159279 19.8425656,8.61188757 14.9289512,13.5369024 C12.3923406,16.0792133 10.3003493,18.1655043 10.2832486,18.1655043 C10.2661478,18.1655043 8.20835807,16.1191151 5.71164916,13.6224061 Z" id="Shape"></path>
                </g>
            </g>
        </g>
    </g>
</svg>