<?xml version="1.0" encoding="UTF-8"?>
<svg width="80px" height="26px" viewBox="0 0 80 26" version="1.1" xmlns="http://www.w3.org/2000/svg" xmlns:xlink="http://www.w3.org/1999/xlink">
    <!-- Generator: Sketch 46.2 (44496) - http://www.bohemiancoding.com/sketch -->
    <title>tindhair-gray</title>
    <desc>Created with Sketch.</desc>
    <defs></defs>
    <g id="Components" stroke="none" stroke-width="1" fill="none" fill-rule="evenodd">
        <g id="iPhone-7" transform="translate(-153.000000, -17.000000)" fill="#262626">
            <g id="tindhair-gray" transform="translate(153.000000, 17.000000)">
                <g id="tindhair">
                    <g id="h" transform="translate(32.580303, 2.038695)" stroke="#262626" fill-rule="nonzero">
                        <g id="Group" transform="translate(0.069435, 0.013898)" stroke-width="0.5">
                            <path d="M0.0201610786,0.0295890052 C0.971763987,0.0532602094 1.9233669,0.0236712042 2.8749698,0.0414246073 C2.8749698,5.45621257 2.87093759,10.8650235 2.8749698,16.2739529 C2.8749698,16.3272131 2.8749698,16.4337335 2.81851878,16.4159801 L0.0282658322,16.4159801 C0.00403221571,15.5223921 0.0241932943,14.6228864 0.0161288629,13.7292984 C0.0201610786,9.16667382 0.0161288629,4.59813141 0.0201610786,0.0295890052 L0.0201610786,0.0295890052 Z" id="Shape"></path>
                        </g>
                        <g id="Group" transform="translate(0.029113, 4.834439)" stroke-width="0.09">
                            <path d="M4.15318218,0.0897025728 C4.32249492,0.0448512864 4.50394463,0.0774704038 4.67329769,0.0407738967 C5.02813267,-0.00407738967 5.37893544,0.0530060657 5.72973821,0.0652382347 C5.97570337,0.0611608451 6.21360409,0.134553859 6.45553704,0.183482535 C7.35472114,0.403661577 8.20551865,0.888870948 8.82244766,1.59833675 C8.93131748,1.78181929 9.09663833,1.91637315 9.20143561,2.10393307 C9.46352964,2.52390421 9.63695523,2.99280402 9.78610689,3.46578122 C9.87888818,3.81235934 9.92723444,4.17116963 9.97162914,4.52590253 C9.99179022,5.31283874 9.97969357,6.10385234 9.98372578,6.89078854 C9.97969357,8.46058357 9.987758,10.0303786 9.97969357,11.6001736 C9.03615509,11.5879414 8.09664883,11.5960962 7.15714257,11.5920188 C7.14907814,11.5879414 7.12891706,11.5716319 7.12085263,11.5634771 C7.11682041,9.36580485 7.12085263,7.16805104 7.12085263,4.9744154 C7.12488484,4.70530768 7.07649826,4.44435474 7.02004724,4.18747919 C6.91924184,3.92652625 6.79021094,3.67780548 6.61279345,3.46578122 C6.50791552,3.33938214 6.36279607,3.25783435 6.2458215,3.14774483 C6.06437179,3.02542314 5.85066436,2.96833968 5.64506168,2.91125623 C5.53619185,2.90310145 5.42732203,2.91125623 5.32651664,2.87455972 C4.89506955,2.84601799 4.45555804,2.8827145 4.05233647,3.04988747 C3.7579444,3.19259611 3.48375373,3.38831082 3.2902477,3.66149592 C2.97170266,4.04477055 2.86686505,4.56667643 2.87492948,5.05596319 C2.87492948,7.23328928 2.8789617,9.41469275 2.87492948,11.5920188 C1.92328625,11.6001736 0.971723665,11.5879414 0.0201207564,11.6001736 C0.00399189356,9.50031793 0.0201207564,7.39638486 0.012056325,5.29652918 C0.0160885407,5.02738069 0.00802410927,4.75831375 0.0281851878,4.48916525 C0.0806039921,4.35461139 0.0442737285,4.20786614 0.0845958857,4.0773489 C0.157175769,3.57990736 0.342657691,3.10693016 0.548300693,2.6543399 C0.749911478,2.2588331 0.991844421,1.87963586 1.30635725,1.56567686 C1.55236273,1.3128787 1.806352,1.04784837 2.11687293,0.872520616 C2.71771339,0.448512864 3.42738336,0.191637315 4.15318218,0.0897025728 Z" id="Shape"></path>
                        </g>
                    </g>
                    <g id="r" transform="translate(59.750062, 6.913907)" stroke="#262626" stroke-width="0.09" fill-rule="nonzero">
                        <path d="M4.27414866,0.0652382347 C4.62495142,0.0570834554 4.97172197,-0.012232169 5.32252474,0.0448512864 C5.51203888,0.0693156244 5.70558523,0.0652382347 5.89509937,0.0733930141 C5.93138931,0.428125915 5.9031638,0.786936207 5.91122824,1.14166911 L5.91122824,2.56875549 C5.91122824,2.65845807 5.92332488,2.75223803 5.88703494,2.83786321 C5.79429398,2.76858836 5.66929529,2.79301192 5.56445768,2.7644702 C5.13704282,2.72781446 4.69753131,2.74820141 4.29430973,2.911297 C3.81447607,3.07846998 3.39512563,3.43320288 3.16125712,3.89394791 C3.09270945,3.97957309 3.09270945,4.10189478 3.01609735,4.18344258 C2.89109867,4.64011022 2.88303424,5.11716481 2.89109867,5.58606462 C2.88706645,7.59214034 2.90319531,9.59413867 2.88303424,11.6002144 C1.94352797,11.5879822 0.999989497,11.6002144 0.05645102,11.5920596 C0.0483865886,11.5839048 0.0362899414,11.5675953 0.02822551,11.5594405 L0.02822551,5.01523007 C0.0161288629,4.74204496 0.0766120986,4.47701463 0.0725798828,4.20790691 C0.137095334,4.07743044 0.120966471,3.92656703 0.161288629,3.79201317 C0.362899414,2.76043358 0.899184104,1.78593745 1.71369168,1.12132293 C1.87094809,0.941917788 2.09675217,0.856292605 2.28223409,0.713583966 C2.88303424,0.342500732 3.58060755,0.163095587 4.27414866,0.0652382347 Z" id="Shape"></path>
                    </g>
                    <g id="i" transform="translate(55.959699, 7.199325)" stroke="#262626" stroke-width="0.09" fill-rule="nonzero">
                        <path d="M0.0201610786,0.0203869484 C0.971763987,0.036696507 1.9233669,0.0163095587 2.8749698,0.0285417277 C2.8749698,3.75935328 2.87093759,7.48604666 2.8749698,11.2128216 C2.8749698,11.2495181 2.8749698,11.3229111 2.81851878,11.3106789 L0.0282658322,11.3106789 C0.00403221571,10.6949931 0.0241932943,10.0752299 0.0161288629,9.45954404 C0.0177820713,8.16994723 0.0180643264,6.87969804 0.0181449707,5.58900034 C0.018225615,3.73333953 0.0177820713,1.87686324 0.0201610786,0.0203869484 L0.0201610786,0.0203869484 Z" id="Shape"></path>
                    </g>
                    <g id="a" transform="translate(42.057554, 2.298851)" fill-rule="nonzero">
                        <g id="e" transform="translate(19.039568, 13.362069) rotate(180.000000) translate(-19.039568, -13.362069) translate(1.136691, 4.022989)" stroke="#262626" stroke-width="0.09">
                            <path d="M0.0241932943,0.0203869484 C0.145159766,0.0774704038 0.221771864,0.195714704 0.318545041,0.289494667 C0.475801454,0.428125915 0.141167872,0.403661577 0.0120966471,0.0774704038 L0.0241932943,0.0203869484 L0.0241932943,0.0203869484 Z M28.2658322,14.5195846 C28.5077651,14.4258047 28.7416336,14.303483 28.9875584,14.2178986 C29.3423934,14.0792673 29.689164,13.9120943 30.043999,13.7734631 C30.7778622,13.4310031 31.5359188,13.1455858 32.2778868,12.8234313 C32.4553043,12.7255739 32.6569151,12.6807227 32.8303003,12.5747105 C33.0278789,12.4972401 33.2254575,12.4278837 33.4190038,12.3381811 C33.5883569,12.2362464 33.7819032,12.1954725 33.9552885,12.1058107 C34.1851248,12.01199 34.4068967,11.9060186 34.6407652,11.8203934 C34.8786659,11.6857988 35.1447922,11.6206013 35.3826929,11.4900841 C35.4472083,11.4452328 35.5520459,11.457465 35.5923681,11.3799946 C35.5238204,11.282178 35.5601104,11.1598563 35.5238204,11.0538034 C35.4714016,10.8622069 35.4189828,10.6746062 35.3746285,10.487087 C35.1931787,9.92032984 34.9310847,9.37803702 34.5762497,8.90505982 C34.1448027,8.27306442 33.552067,7.76339071 32.8948158,7.38827086 C32.4633687,7.12324053 31.9795028,6.97237711 31.4955966,6.84190064 C31.1972127,6.80520413 30.9109253,6.699192 30.6085092,6.70326939 C30.3343185,6.66657289 30.0520634,6.65026333 29.7819049,6.699192 C29.3020713,6.70734678 28.8423987,6.82559108 28.3867583,6.96014494 C27.5924118,7.24148483 26.8383875,7.66961075 26.2295229,8.26083225 C26.0480732,8.43208261 25.8988812,8.63187471 25.7254959,8.80720246 C25.4553375,9.15785798 25.209332,9.52890044 25.0238904,9.92848462 C24.7617964,10.5278609 24.511799,11.1557789 24.4835735,11.8203934 C24.3949051,12.1384298 24.4230903,12.4727758 24.419058,12.798967 C24.4109936,13.0069138 24.4432513,13.2107833 24.4835735,13.4105754 C24.4714768,13.6225589 24.5521212,13.8183144 24.5803467,14.0221839 C24.6488943,14.4543872 24.8384085,14.8539306 25.0117937,15.2535148 C25.4875952,16.2402431 26.237547,17.0964949 27.1770936,17.6550973 C27.7940226,18.0383719 28.4794993,18.311557 29.1972337,18.4134918 C29.7819049,18.5073125 30.3827051,18.5235813 30.9714086,18.4461516 C31.1730194,18.4624204 31.3665657,18.3727179 31.5681765,18.3604857 C32.4270788,18.1566162 33.2698119,17.7896511 33.9189986,17.1739653 C34.1125449,17.0190245 34.2939946,16.835542 34.4472188,16.6397865 C34.7052806,16.3747561 34.8907626,16.0526831 35.0762445,15.7346467 C35.253662,15.3961826 35.3988217,15.0373723 35.5036594,14.6663706 C35.4472083,14.6418655 35.3826929,14.6500611 35.3262419,14.6500611 C34.3827034,14.6541793 33.4431971,14.6459837 32.4996587,14.6500611 C32.4109499,14.6500611 32.4109499,14.7723828 32.3544989,14.8213115 C32.1932103,15.0578001 31.9875673,15.2575921 31.7698276,15.4451521 C31.4553148,15.6735267 31.0843509,15.7958484 30.7174193,15.9058971 C30.6206461,15.91817 30.5279052,15.9140519 30.4391964,15.9507892 C30.2133923,15.967058 29.983556,15.9589439 29.7537198,15.9548666 C29.4996902,15.9059379 29.2456606,15.8488544 28.9996954,15.7673066 C28.6207075,15.5715919 28.2497033,15.3473355 27.9634563,15.0292583 C27.8908361,14.9395965 27.7739422,14.8702809 27.7497085,14.7519958 C27.8142643,14.7234541 27.8747476,14.6786028 27.9472871,14.6663706 C28.0642214,14.6459837 28.1528898,14.5522037 28.2658322,14.5195846 L28.2658322,14.5195846 Z M27.1045137,12.4564254 C27.048103,12.3137168 27.1004815,12.1465438 27.0924171,11.9956804 C27.1569728,11.7876928 27.1771339,11.5675545 27.2537057,11.3595668 C27.447252,10.8988218 27.6851528,10.4462723 28.0319233,10.0833439 C28.1932119,9.94879002 28.3303073,9.78569444 28.5157892,9.68375969 C28.6528845,9.61036668 28.7859477,9.52881889 28.9270752,9.46358065 C29.1891692,9.38615102 29.4431988,9.26382933 29.7174298,9.26382933 C29.9673869,9.20266849 30.225489,9.2352876 30.4794783,9.23932422 C31.1447938,9.33314496 31.814182,9.62259885 32.2456291,10.1567369 C32.2899834,10.2627898 32.1407915,10.2709446 32.0803082,10.3117185 C31.8181739,10.4585045 31.5238221,10.5318567 31.2617281,10.6827609 C31.1447938,10.7031479 31.0439885,10.7765409 30.9310864,10.8132374 C30.0964178,11.1802025 29.2456202,11.5022755 28.419016,11.8855909 C27.9755126,12.0609186 27.5360011,12.2484786 27.1045137,12.4564254 Z" id="Shape"></path>
                        </g>
                        <g id="i" transform="translate(9.661871, 9.195402)" stroke="#262626" stroke-width="0.09">
                            <path d="M0.00431947909,0 C0.955922387,0.0102361757 1.9075253,-0.00255904393 2.8591282,0.00511808786 C2.8591282,2.34664328 2.85509599,4.68558385 2.8591282,7.02457559 C2.8591282,7.04760698 2.8591282,7.09366977 2.80267718,7.08599264 L0.0124242327,7.08599264 C-0.0118093838,6.69957701 0.0083516948,6.31060233 0.000287263374,5.9241867 C0.00194047182,5.11481228 0.00222272692,4.30502842 0.00230337123,3.49496307 C0.00238401554,2.33031658 0.00194047182,1.16515829 0.00431947909,0 L0.00431947909,0 Z" id="Shape"></path>
                        </g>
                        <path d="M13.0515819,7.84473975 C13.0272789,7.83115859 12.9786731,7.81757743 12.9452565,7.81757743 C12.7660223,7.81757743 12.3771752,7.4563186 12.2100925,7.13851948 C12.1007292,6.92936963 12.0278204,6.77726065 11.9852902,6.66317892 C11.9640252,6.60342182 11.9336465,6.54366472 11.921495,6.53008356 C11.9093435,6.51378617 11.8971921,6.48662385 11.8971921,6.464894 C11.8971921,6.44316414 11.8789649,6.38883951 11.8546619,6.34266357 C11.8333968,6.2937714 11.7696016,6.12808126 11.7179579,5.97053981 C11.4901178,5.29691433 11.1772174,4.63415377 10.9615288,4.37067929 C10.7610295,4.12078596 10.4055989,3.84101409 9.99548675,3.60198569 C9.75245732,3.46345787 9.48208707,3.35752483 9.19652748,3.28961903 C8.69831714,3.1755373 8.00568326,3.20269962 7.3100115,3.36838976 C6.40776473,3.58025584 5.68475216,3.73508105 5.39615471,3.77310829 C5.30501867,3.78668945 5.1409738,3.80841931 5.03161055,3.82200047 C4.34809027,3.91706858 4.11721231,3.9360822 3.71013801,3.9360822 C3.40027548,3.9360822 3.18762472,3.92250104 3.04180706,3.89533872 C2.92636808,3.87089264 2.79270189,3.84373032 2.744096,3.83558162 C2.69852799,3.8247167 2.65295997,3.80570308 2.64384636,3.79483815 C2.63473276,3.78125699 2.60739195,3.77039206 2.58005114,3.77039206 C2.50106657,3.77039206 2.11525734,3.58297207 1.92690953,3.45530917 C1.73248598,3.31949758 1.29199514,2.93922513 1.15832895,2.78711615 C1.06719291,2.68661558 0.969981135,2.57253384 0.772519719,2.33078921 C0.65404287,2.18954516 0.49303587,1.93421937 0.116340247,1.29047244 C-0.00821233812,1.07860636 -0.0203638098,1.04872781 0.0221663412,1.01341679 C0.0646964922,0.975389549 0.0859615677,0.975389549 0.250006436,1.01341679 C0.444429983,1.05959273 0.538603889,1.07860636 0.915299512,1.14651215 C1.39224478,1.23071534 2.14563602,1.18725563 2.84434565,1.02971418 C3.69494867,0.83957796 4.36631748,0.644009271 4.87060355,0.440291886 C5.04679989,0.36966986 5.73943378,0.165952475 6.00372829,0.108911608 C6.43814341,0.0138434951 6.8178769,-0.0133188228 7.43152622,0.00569479973 C8.02391046,0.0219921905 8.40971969,0.054586972 8.58591603,0.0980466806 C8.8259076,0.160520012 9.02944475,0.214844648 9.08716424,0.239290734 C9.12058079,0.250155661 9.30589073,0.312628992 9.49727641,0.375102323 C9.88916137,0.502765217 10.5787574,0.796118251 10.8339383,0.942794768 C11.4931556,1.32306722 11.9336465,1.7576643 12.2586984,2.35795153 C12.3893267,2.5942637 12.4804627,2.81156224 12.5351443,3.00984716 C12.6627348,3.47160656 12.7326058,3.77039206 12.7781738,4.05016394 C12.8723477,4.61242392 12.9057642,4.90849318 12.9604458,5.5766862 C13.0333547,6.48934008 13.094112,7.01900528 13.1457558,7.20642528 C13.2156268,7.45088614 13.3098007,7.67361715 13.3766338,7.75238787 C13.416126,7.79856381 13.4465047,7.84473975 13.4465047,7.85288844 C13.4465047,7.88276699 13.1032256,7.8746183 13.0515819,7.84473975 Z" id="Shape"></path>
                    </g>
                    <g id="tind" transform="translate(0.029113, 0.023119)" stroke="#262626" stroke-width="0.09" fill-rule="nonzero">
                        <path d="M7.40314805,0.0203869484 C7.52411452,0.0774704038 7.60072662,0.195714704 7.6974998,0.289494667 C7.85475621,0.428125915 7.97173079,0.611608451 8.12495498,0.754317089 C8.31446912,0.937799624 8.43543559,1.17021084 8.59269201,1.37815771 C8.86688268,1.79812884 9.10881562,2.24664171 9.23381431,2.73592847 C9.36284521,3.07027442 9.38300629,3.4331621 9.37494186,3.79197239 C9.38300629,4.11816357 9.29429754,4.44027735 9.14909745,4.73384941 C8.8991404,5.17828488 8.44753224,5.47593433 7.97572268,5.63495253 C7.38701919,5.77766116 6.73783246,5.8021255 6.16929004,5.54932734 C5.96360672,5.43516043 5.72977853,5.35769003 5.56445768,5.17828488 C5.18139719,4.86024849 4.95962533,4.34242 5.03220521,3.84090107 C5.14510725,2.94795273 5.67332751,2.18140347 6.23783771,1.52086635 C6.29025651,1.6187237 6.24586182,1.73289061 6.28219208,1.83482535 C6.33057867,2.050927 6.40719077,2.27926083 6.5684794,2.43420163 C6.76605797,2.2507191 6.97577351,2.06723656 7.14512657,1.8552123 C7.29835076,1.62687848 7.42330913,1.37408032 7.47572793,1.1049726 C7.4878649,0.762471868 7.52012263,0.403661577 7.3910514,0.0774704038 L7.40314805,0.0203869484 L7.40314805,0.0203869484 Z M0.0161288629,4.09369923 C0.95966734,4.10185401 1.90723803,4.08554445 2.85081683,4.10185401 C2.85081683,5.0518858 2.85884094,6.0019176 2.84674429,6.95194939 C3.51613242,6.96418156 4.18543991,6.95602678 4.85881993,6.95602678 C4.86688437,7.02941979 4.87091658,7.10281281 4.87091658,7.17620582 C4.86285215,7.95906464 4.8749488,8.73784607 4.86285215,9.52070488 C4.18947213,9.52885966 3.52012432,9.52070488 2.84674429,9.52478227 C2.85884094,10.9314817 2.84271208,12.3341038 2.85480873,13.7408032 C2.87900202,13.8631249 2.89513088,13.9854466 2.89109867,14.1118457 C2.8789617,14.2260533 2.94750936,14.3198333 2.97174298,14.4258047 C3.02416179,14.670448 3.1572249,14.8906271 3.31040878,15.0823052 C3.53625318,15.310639 3.82653239,15.4696572 4.137013,15.538932 C4.4192681,15.5838241 4.7015232,15.6082477 4.98785084,15.5878607 C5.00393938,15.6367894 5.01204413,15.6857181 5.01204413,15.7387241 C5.00801192,16.4726543 5.00801192,17.2065844 5.01204413,17.9364372 C5.01204413,18.0383719 4.99188305,18.1403066 4.97575419,18.2381232 C4.5685004,18.2381232 4.16128694,18.266665 3.75399283,18.2381232 C3.51205989,18.1851172 3.2540384,18.2095815 3.02012957,18.1035694 C2.37094284,17.9486286 1.74998162,17.6224374 1.28627681,17.1290732 C0.604832357,16.4644995 0.237900727,15.5266999 0.0887087457,14.597055 C0.0483865886,14.4951203 0.0725798828,14.376876 0.0564106978,14.2667865 C-3.46944695e-17,14.04253 0.0241529721,13.8060007 0.0160885407,13.5777076 C0.0120966471,10.4177306 0.0120966471,7.25367622 0.0161288629,4.09369923 L0.0161288629,4.09369923 Z M13.7901777,6.73584774 C13.9594905,6.69099645 14.1409402,6.72361557 14.3102932,6.68691906 C14.6651282,6.64206777 15.015931,6.69915123 15.3667338,6.7113834 C15.6126989,6.70730601 15.8505996,6.78069902 16.0925326,6.8296277 C16.9917167,7.04980674 17.8425142,7.53501611 18.4594432,8.24448191 C18.568313,8.42796445 18.7336339,8.56251831 18.8384312,8.75007823 C19.1005252,9.17004937 19.2739508,9.63894918 19.4231024,10.1119264 C19.5158837,10.4585045 19.56423,10.8173148 19.6086247,11.1720477 C19.6287858,11.9589839 19.6166891,12.7499975 19.6207213,13.5369337 C19.6166891,15.1067287 19.6247536,16.6765238 19.6166891,18.2463188 C18.6731506,18.2340866 17.7336444,18.2422414 16.7941381,18.238164 C16.7860737,18.2340866 16.7659126,18.2177771 16.7578482,18.2096223 C16.753816,16.01195 16.7578482,13.8141962 16.7578482,11.6205606 C16.7618804,11.3514528 16.7134938,11.0904999 16.6570428,10.8336244 C16.5562374,10.5726714 16.4272065,10.3239506 16.249789,10.1119264 C16.1449111,9.9855273 15.9997916,9.90397951 15.8828171,9.79388999 C15.7013673,9.6715683 15.4876599,9.61448484 15.2820572,9.55740139 C15.1731874,9.54924661 15.0643176,9.55740139 14.9635122,9.52070488 C14.5320651,9.49216315 14.0925536,9.52885966 13.689332,9.69603264 C13.39494,9.83874128 13.1207493,10.034456 12.9272433,10.3076411 C12.6086982,10.6909157 12.5038606,11.2128216 12.511925,11.7021084 C12.511925,13.8794344 12.5159573,16.0608379 12.511925,18.238164 C11.5602818,18.2463188 10.6087192,18.2340866 9.65711631,18.2463188 C9.64098745,16.1464631 9.65711631,14.04253 9.64905188,11.9426743 C9.6530841,11.6735259 9.64501966,11.4044589 9.66518074,11.1353104 C9.71759955,11.0007566 9.68126928,10.8540113 9.72159144,10.7234941 C9.79417132,10.2260525 9.97965325,9.75307532 10.1852962,9.30048507 C10.386907,8.90497827 10.62884,8.52578103 10.9433528,8.21182202 C11.1893583,7.95902386 11.4433476,7.69399354 11.7538685,7.51866578 C12.3547089,7.09465803 13.0643789,6.83778248 13.7901777,6.73584774 Z M5.78622955,6.95194939 C6.73783246,6.96825895 7.68943537,6.947872 8.64103827,6.96010417 C8.64103827,10.6909157 8.63700606,14.4176091 8.64103827,18.144384 C8.64103827,18.1810805 8.64103827,18.2544736 8.58458725,18.2422414 L5.7943343,18.2422414 C5.77010069,17.6265555 5.79026176,17.0067923 5.78219733,16.3911065 C5.78385054,15.1015097 5.7841328,13.8112605 5.78421344,12.5205628 C5.78429409,10.664902 5.78385054,8.80842568 5.78622955,6.95194939 L5.78622955,6.95194939 Z M31.4794678,1.96937921 C30.5964528,1.96122443 29.7133573,1.96937921 28.8303424,1.96530182 C28.7657866,1.9734566 28.6892148,1.94491487 28.6367557,1.99384355 C28.6448201,3.91021669 28.6367557,5.83066723 28.6408282,7.74704038 C28.6367557,7.816356 28.6529249,7.88567162 28.6246994,7.95090986 C28.544055,7.93867769 28.5037329,7.86120729 28.4432496,7.816356 C28.0359959,7.4616231 27.5803958,7.15989626 27.0722963,6.98456851 C26.729558,6.85001465 26.3707311,6.78069902 26.0078317,6.71546079 C25.5965457,6.70730601 25.1812275,6.69507384 24.7658689,6.71953818 C24.7215145,6.73177035 24.6811924,6.74400252 24.6368783,6.74807991 C23.7135009,6.87855638 22.8505664,7.31483707 22.1409368,7.91421335 C21.7457797,8.2893332 21.3506225,8.68076261 21.0723996,9.15373981 C20.7457902,9.62263962 20.536115,10.1608551 20.3345042,10.6909157 C20.2417632,11.0252617 20.1489819,11.3555302 20.1086598,11.698031 C20.0320477,12.2240142 20.0643054,12.7622297 20.0723698,13.2922903 C20.0925309,13.4309216 20.1368853,13.561398 20.1409175,13.7000293 C20.2134974,14.1485422 20.3425283,14.5889002 20.5199054,15.0088714 C20.6690974,15.412533 20.9110304,15.779498 21.1328022,16.1464631 C21.2900586,16.3503326 21.4432828,16.5623568 21.632797,16.741762 C21.9150521,17.0231019 22.1932346,17.3289061 22.5480696,17.5246208 C22.9674201,17.8467346 23.4633826,18.0384127 23.9472485,18.2259318 C24.124666,18.2585509 24.2899868,18.3604857 24.4714365,18.3645631 C24.6246607,18.3767952 24.7657883,18.4501883 24.9190528,18.4419927 C24.9996971,18.4338379 25.072277,18.4909214 25.1569132,18.4827666 C25.5480381,18.4949988 25.9431953,18.4949988 26.3343202,18.4827666 C26.3988356,18.4827666 26.4633511,18.4542249 26.5318988,18.4501475 C26.8020169,18.4542249 27.0520143,18.3482127 27.3141083,18.3115162 C27.6568466,18.1851172 28.0238186,18.1035694 28.3423233,17.9160502 C28.8140925,17.6958712 29.2415074,17.3859896 29.6245679,17.0352933 C30.1084338,16.6112855 30.4995587,16.0812249 30.7898782,15.5021948 C30.9148769,15.2453192 31.0560045,14.9965984 31.1366488,14.7193359 C31.2899133,14.3360613 31.3584206,13.9283223 31.4108798,13.5246608 C31.4995482,13.1699279 31.471363,12.7988854 31.4793871,12.4319203 C31.4794678,8.94579294 31.4794678,5.45962477 31.4794678,1.96937921 L31.4794678,1.96937921 Z M28.6126027,13.0109504 C28.5884094,13.4431945 28.4271208,13.8549701 28.2376066,14.2423221 C27.9190616,14.8498532 27.3827769,15.3146756 26.7739123,15.6082477 C26.6811311,15.6571763 26.5601646,15.6531397 26.4956895,15.7428015 C26.3827874,15.7428015 26.2698854,15.7469197 26.1610155,15.7876936 C25.8142047,15.7958484 25.4553778,15.8284675 25.1166717,15.7306101 C24.9715119,15.6612945 24.8102233,15.6327935 24.6650635,15.5552824 C24.4836138,15.4533476 24.2779708,15.384032 24.1287788,15.2290912 C23.8465237,15.0292991 23.6288244,14.756114 23.4312055,14.4747741 C23.2739491,14.201589 23.1166927,13.9202491 23.0441128,13.6103675 C22.9634685,13.4472719 22.9714926,13.2637894 22.9271785,13.092539 C22.9150819,12.6562991 22.8908886,12.2077862 22.991694,11.7836969 C23.0360887,11.6491431 23.0643142,11.5064344 23.1126605,11.3718806 C23.2295947,11.1557381 23.3021746,10.9152129 23.4553988,10.7194982 C23.5360431,10.5482479 23.6771707,10.421808 23.790113,10.2750627 C24.0925292,9.92440723 24.5078474,9.7001508 24.9271575,9.52482305 C25.084414,9.48816731 25.2376382,9.40661952 25.4029993,9.40661952 C25.7376732,9.32095356 26.0844035,9.39030996 26.4150855,9.45147081 C26.8505648,9.610489 27.2820118,9.83066804 27.620718,10.1568592 C27.7457166,10.2751035 27.8384173,10.4218895 27.9634563,10.5401338 C28.4795396,11.2413633 28.7174,12.1424664 28.6126027,13.0109504 Z" id="Shape"></path>
                    </g>
                </g>
            </g>
        </g>
    </g>
</svg>