<?xml version="1.0" encoding="UTF-8"?>
<svg width="21px" height="20px" viewBox="0 0 21 20" version="1.1" xmlns="http://www.w3.org/2000/svg" xmlns:xlink="http://www.w3.org/1999/xlink">
    <!-- Generator: Sketch 46.2 (44496) - http://www.bohemiancoding.com/sketch -->
    <title>scissors-white</title>
    <desc>Created with Sketch.</desc>
    <defs></defs>
    <g id="Components" stroke="none" stroke-width="1" fill="none" fill-rule="evenodd">
        <g id="iPhone-7" transform="translate(-146.000000, -107.000000)" fill="#FFFFFF">
            <g id="Group-2" transform="translate(124.000000, 97.000000)">
                <g id="scissors-white" transform="translate(22.000000, 10.000000)">
                    <g id="layer1">
                        <path d="M6.98161465,19.8803072 C6.37989344,19.7028045 5.74520119,19.162228 5.4237337,18.557105 C5.11875171,17.9761869 5.07753793,17.0402633 5.31657786,16.4109354 C5.53913228,15.846154 6.0089694,15.3055774 6.49529202,15.0635282 C6.85797331,14.8860255 6.88270157,14.8537523 7.54212208,13.4660036 C7.91304612,12.6833778 8.20154259,12.029845 8.18505708,12.0056401 C8.16857157,11.9895035 7.61630689,12.2234844 6.96512914,12.53008 C6.31395138,12.8286073 5.67101639,13.1271347 5.53088953,13.1836128 C5.37427716,13.240091 5.18469376,13.4417986 5.00335312,13.7241894 C4.51703049,14.5148834 3.66802659,14.9667086 2.67889582,14.9667086 C0.766576343,14.9667086 -0.560507434,12.9738369 0.239039935,11.2956291 C0.700634292,10.319364 1.46721064,9.8029924 2.53052621,9.73844595 C3.57735627,9.68196781 4.37690364,10.0450416 4.92092556,10.8276673 C5.06929517,11.0374433 5.19293652,11.2230143 5.20942203,11.239151 C5.25063581,11.2956291 6.1408535,10.8034624 6.84973055,10.3435689 C8.64665144,9.16559619 10.9875942,7.29374908 14.9276318,3.87278712 C17.5241001,1.62172961 18.1917633,1.09728968 19.0407672,0.64546452 C19.5930319,0.338868873 19.7991008,0.32273226 19.5683036,0.580918068 C19.5023616,0.661601133 18.9418542,1.43615856 18.3318902,2.29946735 C15.2738276,6.62407964 14.6391353,7.47125182 13.3944791,8.923547 C11.8695692,10.6905061 10.9546232,11.8281373 10.1633186,12.9577002 C9.61929669,13.7241894 8.95163342,14.7972741 8.95163342,14.8940938 C8.95163342,14.9182987 9.13297407,15.0554599 9.35552849,15.1926212 C10.1550759,15.6767195 10.5672137,16.5400283 10.5012716,17.5808399 C10.4518151,18.242441 10.2539889,18.6861979 9.77590906,19.1945012 C9.28134368,19.7189411 8.79502105,19.9125805 7.96250266,19.9448537 C7.57509311,19.952922 7.13822702,19.9287171 6.98161465,19.8803072 Z M8.4076115,19.0734766 C8.58070939,19.0250667 8.88569137,18.8394957 9.08351753,18.6619929 C10.2952027,17.5647033 9.49565535,15.5879682 7.83886131,15.5879682 C6.23976658,15.5879682 5.43197645,17.4033371 6.51177754,18.5651733 C7.01458568,19.1057498 7.65752067,19.2751842 8.4076115,19.0734766 Z M3.64329832,13.8774872 C4.07192165,13.6273697 4.36866088,13.2239544 4.50054498,12.6914461 C4.58297255,12.3848505 4.57472979,12.239621 4.46757396,11.8765472 C4.30271883,11.3359706 4.10489268,11.0777848 3.61032729,10.7873258 C3.10751915,10.5049351 2.29972903,10.4807302 1.85462018,10.7469843 C0.684148779,11.4569952 0.527536408,12.8528123 1.53315269,13.6919161 C2.1348739,14.2002195 2.95090678,14.2728342 3.64329832,13.8774872 Z M11.1359639,10.2548176 C11.7294423,10.0127684 11.8365982,9.21400603 11.33379,8.8025224 C10.8886812,8.4313803 10.1962896,8.60081474 9.97373522,9.12525466 C9.78415182,9.56901152 9.92427868,9.94015362 10.3941158,10.2225443 C10.690855,10.4000471 10.7732826,10.4000471 11.1359639,10.2548176 Z" id="Shape" fill-rule="nonzero"></path>
                        <path d="M16.6009113,19.4768919 C16.2794438,19.2993892 16.4360562,19.0654083 17.7466545,17.7744792 L19.04901,16.4996868 L18.8182128,16.2818425 L18.5956584,16.0559299 L17.2768174,17.346859 C16.0156756,18.5732416 15.9579763,18.6297197 15.7354219,18.5490367 C15.5870523,18.5006268 15.496382,18.4038071 15.4798965,18.2827825 C15.4551682,18.1294847 15.6942081,17.847094 16.749281,16.8143508 L18.0598792,15.53149 L17.829082,15.3136457 L17.6065276,15.0877332 L16.2876866,16.3786622 C15.0265449,17.6050448 14.9688456,17.6615229 14.7462912,17.5808399 C14.5979215,17.53243 14.5072512,17.4356104 14.4907657,17.3145858 C14.4660374,17.1612879 14.7050774,16.8788972 15.7601502,15.846154 L17.0707485,14.5632932 L16.8399513,14.345449 L16.6173969,14.1195364 L15.2985558,15.4104654 C14.0374141,16.636848 13.9797148,16.6933262 13.7571604,16.6126431 C13.6087908,16.5642333 13.5181205,16.4674136 13.5016349,16.346389 C13.4769067,16.1930912 13.7159466,15.9107004 14.7710194,14.8779572 L16.0816177,13.5950965 L15.8508205,13.3772522 L15.6282661,13.1513396 L14.3259106,14.426132 C13.5758198,15.1603479 12.9658558,15.6928562 12.8751855,15.6928562 C12.7020876,15.6928562 12.5042614,15.4750119 12.4960187,15.2894408 C12.4960187,15.2248944 13.0812544,14.5955665 13.7901314,13.9016921 L15.0924869,12.6268997 L14.8616897,12.4090554 L14.6391353,12.1912111 L13.295566,13.4982768 C12.553718,14.2163561 11.9272685,14.8053424 11.8942975,14.8053424 C11.7953844,14.8053424 11.5068879,14.450337 11.5068879,14.3293124 C11.5068879,14.2647659 12.0921236,13.635438 12.8010007,12.9334953 L14.0951134,11.6587029 L13.872559,11.4327903 L13.6500046,11.214946 L12.3971056,12.4413286 C11.7129568,13.1190664 11.1359639,13.6677112 11.1277211,13.6515746 C11.0617791,13.5870282 14.1692982,9.72230934 14.2929396,9.72230934 C14.3259106,9.72230934 15.7766357,11.1181264 17.5241001,12.8286073 L20.6975613,15.9349053 L18.8429411,17.7502743 C17.8208393,18.7507443 16.9306216,19.5656433 16.8646795,19.5656433 C16.7987375,19.5656433 16.6750961,19.5253017 16.6009113,19.4768919 Z" id="Shape" fill-rule="nonzero"></path>
                        <path d="M5.73695844,8.83479562 C5.64628812,8.74604425 5.57210331,8.63308796 5.57210331,8.57660982 C5.57210331,8.52819998 6.16558177,7.89887207 6.89094433,7.18079279 L8.20978535,5.88179544 L8.02020195,5.7042927 C7.91304612,5.60747302 7.79764753,5.52678996 7.74819099,5.52678996 C7.70697721,5.52678996 7.09701324,6.09963972 6.37989344,6.79351408 C5.11050895,8.03603328 5.07753793,8.0602382 4.87146902,7.94728191 C4.44284569,7.72136933 4.56648703,7.51159336 5.94302735,6.17225448 L7.22889734,4.92973528 L7.01458568,4.72802761 L6.80851677,4.52631995 L6.38813619,4.92166697 C6.15733901,5.14757955 5.60507434,5.68008778 5.16820825,6.11577633 C4.73134216,6.55146488 4.31096158,6.9468119 4.22853402,6.98715343 C4.03895062,7.09204142 3.78342518,7.01135835 3.66802659,6.80158238 C3.58559902,6.65635287 3.72572588,6.49498674 4.92092556,5.31701399 L6.26449485,3.99381172 L6.04194042,3.77596744 L5.819386,3.55005486 L4.50878774,4.8329156 C3.33831633,5.97861512 3.1734612,6.10770803 2.98387781,6.05929819 C2.86847922,6.03509327 2.73659512,5.93020528 2.67889582,5.84145391 C2.59646826,5.68815609 2.7201096,5.54292657 3.93179479,4.34881721 L5.27536408,3.02561494 L5.05280966,2.80777066 L4.83025524,2.58185808 L3.51965697,3.86471882 C2.46458416,4.89746205 2.17608768,5.13144294 2.01947531,5.10723802 C1.89583397,5.09110141 1.79692089,5.00235003 1.74746435,4.85712052 C1.66503679,4.63927624 1.72273608,4.5827981 2.97563505,3.3483472 L4.29447607,2.05741816 L4.06367889,1.83957388 L3.84112447,1.6136613 L2.53052621,2.89652204 C1.47545339,3.92926527 1.18695692,4.16324616 1.03034455,4.13904124 C0.906703201,4.12290462 0.807790125,4.03415325 0.758333587,3.88892374 C0.675906023,3.67107946 0.741848074,3.5984647 2.54701172,1.83150558 L4.41811742,0 L7.5009083,3.01754663 L10.5919419,6.03509327 L9.75118079,6.71283101 C9.28958644,7.08397311 8.68786522,7.5600032 8.41585426,7.76171086 L7.92128888,8.13285296 L8.56422388,7.49545674 L9.19891612,6.84999222 L8.96811894,6.63214795 L8.73732176,6.41430367 L7.4267235,7.70523271 C6.70136093,8.41524369 6.06666869,8.99616175 6.0089694,8.99616175 C5.9512701,8.99616175 5.82762876,8.923547 5.73695844,8.83479562 Z" id="Shape" fill-rule="nonzero"></path>
                        <path d="M17.1284478,4.67961777 C17.1943898,4.5908664 17.8950241,3.61460131 18.6780859,2.50117502 C20.301909,0.201707663 20.2689379,0.250117502 20.1700249,0.580918068 C20.0051697,1.12956291 19.5023616,1.96866679 18.8511838,2.78356574 C18.5214736,3.19504938 17.4169442,4.43756858 17.1614188,4.67961777 L16.9965636,4.8409839 L17.1284478,4.67961777 Z" id="Shape" fill-rule="nonzero"></path>
                    </g>
                </g>
            </g>
        </g>
    </g>
</svg>