<?xml version="1.0" encoding="UTF-8"?>
<svg width="22px" height="21px" viewBox="0 0 22 21" version="1.1" xmlns="http://www.w3.org/2000/svg" xmlns:xlink="http://www.w3.org/1999/xlink">
    <!-- Generator: Sketch 46.2 (44496) - http://www.bohemiancoding.com/sketch -->
    <title>scissors-orange-light copy</title>
    <desc>Created with Sketch.</desc>
    <defs></defs>
    <g id="Components" stroke="none" stroke-width="1" fill="none" fill-rule="evenodd">
        <g id="iPhone-7" transform="translate(-144.000000, -91.000000)">
            <g id="scissors-orange-light" transform="translate(144.000000, 91.000000)">
                <g id="layer1">
                    <path d="M7.31407249,20.8743226 C6.68369788,20.6879447 6.0187822,20.1203393 5.68200673,19.4849602 C5.36250179,18.8749962 5.31932545,17.8922765 5.56974824,17.2314822 C5.80290049,16.6384617 6.2951108,16.0708563 6.80459164,15.8167047 C7.18454346,15.6303268 7.21044927,15.5964399 7.90127076,14.1393037 C8.28985784,13.3175467 8.59209224,12.6313373 8.5748217,12.6059221 C8.55755117,12.5889786 7.97898817,12.8346586 7.29680195,13.156584 C6.61461574,13.4700377 5.94106479,13.7834914 5.79426522,13.8427935 C5.63019512,13.9020955 5.43158394,14.1138886 5.24160803,14.4103988 C4.73212718,15.2406276 3.84269452,15.715044 2.80646229,15.715044 C0.803079978,15.715044 -0.587198264,13.6225287 0.250422789,11.8604106 C0.73399783,10.8353322 1.53707781,10.293142 2.65102746,10.2253683 C3.74770657,10.1660662 4.58532762,10.5472937 5.15525535,11.3690507 C5.31069018,11.5893155 5.44021921,11.7841651 5.45748975,11.8011085 C5.50066609,11.8604106 6.4332751,11.3436355 7.17590819,10.8607474 C9.05839675,9.623876 11.510813,7.65843654 15.6384714,4.06642648 C18.358581,1.70281609 19.0580378,1.15215417 19.9474704,0.677737747 C20.5260334,0.355812317 20.7419151,0.338868873 20.5001276,0.609963972 C20.4310455,0.69468119 19.8438472,1.50796649 19.2048373,2.41444072 C16.0011527,6.95528362 15.336237,7.84481442 14.0323115,9.36972435 C12.4347868,11.2250314 11.4762719,12.4195442 10.6472862,13.6055853 C10.0773584,14.4103988 9.37790168,15.5371378 9.37790168,15.6387985 C9.37790168,15.6642137 9.56787759,15.8082329 9.80102984,15.9522522 C10.6386509,16.4605555 11.0704143,17.3670298 11.0013322,18.4598819 C10.9495206,19.1545631 10.7422741,19.6205078 10.2414285,20.1542262 C9.72331243,20.7048882 9.21383158,20.9082095 8.34166945,20.9420964 C7.93581183,20.9505681 7.47814259,20.9251529 7.31407249,20.8743226 Z M8.80797396,20.0271504 C8.9893146,19.9763201 9.30881953,19.7814705 9.51606598,19.5950926 C10.7854505,18.4429384 9.94782941,16.3673666 8.21214042,16.3673666 C6.53689832,16.3673666 5.690642,18.273504 6.82186218,19.4934319 C7.34861357,20.0610373 8.02216452,20.2389435 8.80797396,20.0271504 Z M3.81678871,14.5713615 C4.26582268,14.3087382 4.57669235,13.8851521 4.71485665,13.3260184 C4.80120933,13.004093 4.79257406,12.851602 4.68031557,12.4703745 C4.5076102,11.9027692 4.30036376,11.6316741 3.78224764,11.3266921 C3.25549626,11.0301818 2.40923994,11.0047667 1.94293543,11.2843335 C0.716727293,12.029845 0.552657189,13.4954529 1.60615996,14.3765119 C2.23653456,14.9102304 3.09142615,14.9864759 3.81678871,14.5713615 Z M11.6662479,10.7675584 C12.2879872,10.5134068 12.4002457,9.67470633 11.8734943,9.24264852 C11.4071898,8.85294931 10.6818272,9.03085547 10.448675,9.58151739 C10.2500638,10.0474621 10.3968634,10.4371613 10.8890737,10.7336716 C11.1999434,10.9200494 11.286296,10.9200494 11.6662479,10.7675584 Z" id="Shape" fill="#FFB9AA" fill-rule="nonzero"></path>
                    <path d="M17.3914309,20.4507365 C17.0546555,20.2643586 17.2187256,20.0186787 18.5917333,18.6632032 L19.9561057,17.3246711 L19.7143182,17.0959347 L19.4811659,16.8587264 L18.099523,18.2142019 C16.7783269,19.5019037 16.71788,19.5612057 16.4847277,19.4764885 C16.3292929,19.4256582 16.2343049,19.3239975 16.2170344,19.1969217 C16.1911286,19.035959 16.4415514,18.7394487 17.5468658,17.6550683 L18.9198735,16.3080645 L18.6780859,16.079328 L18.4449337,15.8421198 L17.0632907,17.1975953 C15.7420946,18.485297 15.6816478,18.5445991 15.4484955,18.4598819 C15.2930607,18.4090515 15.1980727,18.3073909 15.1808022,18.1803151 C15.1548964,18.0193523 15.4053192,17.7228421 16.5106335,16.6384617 L17.8836412,15.2914579 L17.6418537,15.0627214 L17.4087015,14.8255132 L16.0270585,16.1809887 C14.7058624,17.4686904 14.6454155,17.5279925 14.4122633,17.4432753 C14.2568284,17.3924449 14.1618405,17.2907843 14.1445699,17.1637084 C14.1186641,17.0027457 14.3690869,16.7062355 15.4744013,15.6218551 L16.847409,14.2748513 L16.6056215,14.0461148 L16.3724692,13.8089066 L15.0080968,15.1474386 C14.2222874,15.9183653 13.5832775,16.477499 13.4882895,16.477499 C13.3069489,16.477499 13.0997024,16.2487625 13.0910672,16.0539129 C13.0910672,15.9861391 13.7041712,15.3253448 14.4468043,14.5967767 L15.8111768,13.2582447 L15.5693893,13.0295082 L15.336237,12.8007717 L13.9286882,14.1731906 C13.1515141,14.9271739 12.4952336,15.5456096 12.4606926,15.5456096 C12.3570693,15.5456096 12.0548349,15.1728538 12.0548349,15.045778 C12.0548349,14.9780042 12.667939,14.3172099 13.4105721,13.5801701 L14.7663093,12.241638 L14.533157,12.0044298 L14.3000048,11.7756933 L12.987444,13.0633951 C12.2707167,13.7750197 11.6662479,14.3510968 11.6576126,14.3341533 C11.5885304,14.2663796 14.8440267,10.2084248 14.9735557,10.2084248 C15.0080968,10.2084248 16.5279041,11.6740327 18.358581,13.4700377 L21.6831594,16.7316506 L19.740224,18.637788 C18.6694507,19.6882815 17.7368417,20.5439254 17.6677595,20.5439254 C17.5986774,20.5439254 17.4691483,20.5015668 17.3914309,20.4507365 Z" id="Shape" fill="#FFB9AA" fill-rule="nonzero"></path>
                    <path d="M6.01014694,9.27653541 C5.91515898,9.18334647 5.83744156,9.06474236 5.83744156,9.00544031 C5.83744156,8.95460998 6.4591809,8.29381567 7.21908454,7.53983243 L8.60072751,6.17588522 L8.40211633,5.98950733 C8.28985784,5.88784667 8.16896408,5.80312945 8.11715247,5.80312945 C8.07397613,5.80312945 7.43496625,6.4046217 6.68369788,7.13318978 C5.35386652,8.43783494 5.31932545,8.46325011 5.10344373,8.344646 C4.65440977,8.10743779 4.7839388,7.88717302 6.22602865,6.4808672 L7.57313055,5.17622204 L7.34861357,4.96442899 L7.13273185,4.75263595 L6.69233315,5.16775032 C6.45054563,5.40495853 5.87198264,5.96409217 5.4143134,6.42156515 C4.95664417,6.87903813 4.51624547,7.2941525 4.42989278,7.33651111 C4.23128161,7.44664349 3.96358828,7.36192627 3.84269452,7.1416615 C3.75634183,6.98917051 3.9031414,6.81973607 5.15525535,5.58286469 L6.56280412,4.19350231 L6.32965187,3.96476582 L6.09649962,3.72755761 L4.72349192,5.07456138 C3.49728378,6.27754588 3.32457841,6.41309343 3.12596723,6.3622631 C3.00507347,6.33684793 2.86690917,6.22671555 2.80646229,6.13352661 C2.7201096,5.97256389 2.84963863,5.8200729 4.11902311,4.56625807 L5.52657189,3.17689569 L5.29341964,2.9481592 L5.06026739,2.71095099 L3.68725969,4.05795476 C2.58194531,5.14233515 2.27971091,5.38801508 2.1156408,5.36259992 C1.98611177,5.34565648 1.88248855,5.25246754 1.83067694,5.09997654 C1.74432425,4.87124005 1.80477113,4.811938 3.11733196,3.51576456 L4.49897493,2.16028907 L4.25718741,1.93155258 L4.02403516,1.69434437 L2.65102746,3.04134814 C1.54571308,4.12572853 1.24347868,4.37140846 1.07940857,4.3459933 C0.949879544,4.32904986 0.846256321,4.23586092 0.79444471,4.08336992 C0.708092024,3.85463343 0.777174173,3.77838794 2.66829799,1.92308086 L4.62850396,0 L7.85809441,3.16842396 L11.0963201,6.33684793 L10.2155227,7.04847256 C9.7319477,7.43817177 9.10157309,7.93800336 8.81660923,8.1497964 L8.29849311,8.53949561 L8.97204406,7.87022958 L9.63695974,7.19249183 L9.39517222,6.96375535 L9.1533847,6.73501886 L7.78037699,8.09049435 C7.02047336,8.83600587 6.35555768,9.44596984 6.2951108,9.44596984 C6.23466392,9.44596984 6.10513489,9.36972435 6.01014694,9.27653541 Z" id="Shape" fill="#FFB9AA" fill-rule="nonzero"></path>
                    <path d="M17.9440881,4.91359866 C18.0131703,4.82040972 18.7471681,3.79533138 19.5675186,2.62623377 C21.2686665,0.211793046 21.2341255,0.262623377 21.1305022,0.609963972 C20.9577969,1.18604106 20.4310455,2.06710013 19.7488593,2.92274403 C19.4034485,3.35480185 18.2463225,4.65944701 17.9786292,4.91359866 L17.8059238,5.0830331 L17.9440881,4.91359866 Z" id="Shape" fill="#F26D4D" fill-rule="nonzero"></path>
                </g>
            </g>
        </g>
    </g>
</svg>