<?xml version="1.0" encoding="UTF-8"?>
<svg width="21px" height="22px" viewBox="0 0 21 22" version="1.1" xmlns="http://www.w3.org/2000/svg" xmlns:xlink="http://www.w3.org/1999/xlink">
    <!-- Generator: Sketch 46.2 (44496) - http://www.bohemiancoding.com/sketch -->
    <title>search</title>
    <desc>Created with Sketch.</desc>
    <defs></defs>
    <g id="Components" stroke="none" stroke-width="1" fill="none" fill-rule="evenodd">
        <g id="iPhone-7" transform="translate(-57.000000, -630.000000)" fill-rule="nonzero" fill="#C7C7C7">
            <g id="search" transform="translate(57.000000, 630.000000)">
                <path d="M20.564429,19.1079271 C21.2157674,19.8142058 21.1227191,20.9436494 20.3783323,21.5550549 C19.6339455,22.213897 18.470469,22.1197767 17.7729786,21.413498 L13.0275129,16.2835651 C11.7248361,17.1306478 10.1891662,17.6012493 8.51429591,17.6012493 C3.81498221,17.6012493 0,13.6481966 0,8.80062465 C0,3.95305265 3.81498221,0 8.51429591,0 C13.2136096,0 17.0285918,3.95305265 17.0285918,8.80062465 C17.0285918,10.636347 16.5164537,12.3305124 15.5859703,13.6948803 C15.6328666,13.7423169 15.6328666,13.7890006 15.6790186,13.7890006 L20.564429,19.1079271 Z M8.5150403,2.96591893 C5.39754849,2.96591893 2.83909115,5.5546037 2.83909115,8.80137761 C2.83909115,12.0481515 5.39829288,14.6842729 8.5150403,14.6842729 C11.6786841,14.6842729 14.1909894,12.0489045 14.1909894,8.80137761 C14.1909894,5.55385074 11.6786841,2.96591893 8.5150403,2.96591893 Z" id="Shape"></path>
            </g>
        </g>
    </g>
</svg>