<?xml version="1.0" encoding="UTF-8"?>
<svg width="26px" height="26px" viewBox="0 0 26 26" version="1.1" xmlns="http://www.w3.org/2000/svg" xmlns:xlink="http://www.w3.org/1999/xlink">
    <!-- Generator: Sketch 46.2 (44496) - http://www.bohemiancoding.com/sketch -->
    <title>user</title>
    <desc>Created with Sketch.</desc>
    <defs></defs>
    <g id="Components" stroke="none" stroke-width="1" fill="none" fill-rule="evenodd">
        <g id="iPhone-7" transform="translate(-298.000000, -627.000000)">
            <g id="user" transform="translate(298.000000, 627.000000)">
                <circle id="Oval" stroke="#C7C7C7" stroke-width="2" stroke-linecap="round" cx="13" cy="13" r="12"></circle>
                <rect id="Rectangle-path" x="0" y="0" width="25" height="25"></rect>
                <path d="M15.3981682,18.1334466 C15.3268509,17.3237257 15.3542055,16.7586289 15.3542055,16.0187289 C15.7107922,15.8263449 16.3497176,14.5997082 16.4576706,13.5634463 C16.7380553,13.5398378 17.1801252,13.2585452 17.3095711,12.1479417 C17.379423,11.5517019 17.1019692,11.21616 16.9329568,11.1106752 C17.3891925,9.69969144 18.3368341,5.33463296 15.1803083,4.88356017 C14.8554724,4.29686416 14.0235995,4 12.9426042,4 C8.61764616,4.08187624 8.09595482,7.3584328 9.04408487,11.1106752 C8.87556098,11.21616 8.59810716,11.5517019 8.66747062,12.1479417 C8.79740498,13.2585452 9.23898641,13.5398378 9.51937109,13.5634463 C9.6268356,14.5992059 10.2911617,15.8263449 10.6487254,16.0187289 C10.6487254,16.7586289 10.6755915,17.3237257 10.6042742,18.1334466 C9.98830713,19.8362714 6.82494276,19.9693831 5,21.6114287 C6.90798351,23.587007 10.0000305,25 13.2630438,25 C16.5260571,25 20.3615631,22.3508264 21,21.6280049 C19.1862922,19.97089 16.0156007,19.8422991 15.3981682,18.1334466 Z" id="Shape" fill="#C7C7C7" fill-rule="nonzero"></path>
            </g>
        </g>
    </g>
</svg>